# xmcd
#
# Track frame offsets: 
#        150
#        21335
#        40377
#        65247
#        82827
#        99527
#        117117
#        132245
#        154942
#        184380
#
# Disc length: 2809 seconds
#
# Revision: 3
# Processed by: cddbd v1.5.2PL0 Copyright (c) Steve Scherf et al.
# Submitted via: ExactAudioCopy v1.0b3
#
DISCID=880af70a
DTITLE=坂本真綾 - シンガーソングライター
DYEAR=2013
DGENRE=JPop
TTITLE0=遠く
TTITLE1=サンシャイン
TTITLE2=everywhere ～ HAL mix 
TTITLE3=ニコラ
TTITLE4=Ask.
TTITLE5=なりたい
TTITLE6=カイナリ
TTITLE7=誓い ～ ssw edition
TTITLE8=僕の半分
TTITLE9=シンガーソングライター
EXTD=YEAR: 2013
EXTT0=
EXTT1=
EXTT2=
EXTT3=
EXTT4=
EXTT5=
EXTT6=
EXTT7=
EXTT8=
EXTT9=
PLAYORDER=
